<?xml version="1.0" standalone="no"?><svg xmlns="http://www.w3.org/2000/svg" viewBox="0 0 1440 320"><path fill="#0099ff" fill-opacity="1" d="M0,128L30,133.3C60,139,120,149,180,176C240,203,300,245,360,250.7C420,256,480,224,540,197.3C600,171,660,149,720,160C780,171,840,213,900,218.7C960,224,1020,192,1080,170.7C1140,149,1200,139,1260,138.7C1320,139,1380,149,1410,154.7L1440,160L1440,320L1410,320C1380,320,1320,320,1260,320C1200,320,1140,320,1080,320C1020,320,960,320,900,320C840,320,780,320,720,320C660,320,600,320,540,320C480,320,420,320,360,320C300,320,240,320,180,320C120,320,60,320,30,320L0,320Z"></path></svg>